<svg width="528" height="367" viewBox="0 0 528 367" fill="none" xmlns="http://www.w3.org/2000/svg">
<g filter="url(#filter0_bd_13_8)">
<mask id="path-1-inside-1_13_8" fill="white">
<path d="M359.038 252.218C337.18 252.218 316.217 243.453 300.761 227.851C285.306 212.249 276.623 191.088 276.623 169.024C276.623 146.959 285.306 125.798 300.761 110.196C316.217 94.5944 337.18 85.8293 359.038 85.8293C380.896 85.8293 401.858 94.5944 417.314 110.196C432.77 125.798 441.453 146.959 441.453 169.024C441.453 191.088 432.77 212.249 417.314 227.851C401.858 243.453 380.896 252.218 359.038 252.218ZM359.038 2.63489C363.409 2.63489 367.602 4.38791 370.693 7.50831C373.784 10.6287 375.521 14.8609 375.521 19.2738V52.5515C375.521 56.9645 373.784 61.1966 370.693 64.317C367.602 67.4374 363.409 69.1904 359.038 69.1904C354.666 69.1904 350.474 67.4374 347.382 64.317C344.291 61.1966 342.555 56.9645 342.555 52.5515V19.2738C342.555 14.8609 344.291 10.6287 347.382 7.50831C350.474 4.38791 354.666 2.63489 359.038 2.63489ZM359.038 268.857C363.409 268.857 367.602 270.61 370.693 273.73C373.784 276.851 375.521 281.083 375.521 285.496V318.774C375.521 323.187 373.784 327.419 370.693 330.539C367.602 333.66 363.409 335.413 359.038 335.413C354.666 335.413 350.474 333.66 347.382 330.539C344.291 327.419 342.555 323.187 342.555 318.774V285.496C342.555 281.083 344.291 276.851 347.382 273.73C350.474 270.61 354.666 268.857 359.038 268.857ZM210.691 152.385H243.657C248.028 152.385 252.221 154.138 255.312 157.258C258.403 160.379 260.14 164.611 260.14 169.024C260.14 173.437 258.403 177.669 255.312 180.789C252.221 183.91 248.028 185.663 243.657 185.663H210.691C206.319 185.663 202.126 183.91 199.035 180.789C195.944 177.669 194.208 173.437 194.208 169.024C194.208 164.611 195.944 160.379 199.035 157.258C202.126 154.138 206.319 152.385 210.691 152.385ZM474.419 152.385H507.385C511.756 152.385 515.949 154.138 519.04 157.258C522.131 160.379 523.868 164.611 523.868 169.024C523.868 173.437 522.131 177.669 519.04 180.789C515.949 183.91 511.756 185.663 507.385 185.663H474.419C470.047 185.663 465.855 183.91 462.764 180.789C459.672 177.669 457.936 173.437 457.936 169.024C457.936 164.611 459.672 160.379 462.764 157.258C465.855 154.138 470.047 152.385 474.419 152.385ZM475.589 51.3702C478.679 54.4904 480.415 58.7218 480.415 63.1339C480.415 67.5459 478.679 71.7773 475.589 74.8976L452.282 98.425C450.762 100.014 448.943 101.282 446.932 102.154C444.921 103.026 442.758 103.485 440.569 103.504C438.381 103.523 436.21 103.102 434.185 102.266C432.159 101.429 430.318 100.193 428.771 98.6312C427.223 97.0689 425.999 95.2112 425.171 93.1663C424.342 91.1214 423.925 88.9305 423.944 86.7211C423.963 84.5118 424.417 82.3285 425.281 80.2985C426.145 78.2685 427.401 76.4325 428.975 74.8976L452.282 51.3702C455.373 48.2509 459.565 46.4985 463.936 46.4985C468.306 46.4985 472.498 48.2509 475.589 51.3702ZM289.1 239.623C292.19 242.743 293.926 246.974 293.926 251.386C293.926 255.798 292.19 260.03 289.1 263.15L265.793 286.677C264.273 288.267 262.454 289.534 260.443 290.406C258.432 291.278 256.269 291.737 254.08 291.756C251.892 291.776 249.721 291.355 247.696 290.518C245.67 289.681 243.83 288.446 242.282 286.884C240.734 285.321 239.51 283.464 238.682 281.419C237.853 279.374 237.436 277.183 237.455 274.974C237.474 272.764 237.929 270.581 238.792 268.551C239.656 266.521 240.912 264.685 242.486 263.15L265.793 239.623C268.884 236.503 273.076 234.751 277.447 234.751C281.817 234.751 286.009 236.503 289.1 239.623ZM265.793 51.3702L289.1 74.8976C292.103 78.0357 293.764 82.2387 293.727 86.6014C293.689 90.9641 291.956 95.1373 288.899 98.2223C285.843 101.307 281.709 103.057 277.387 103.095C273.066 103.133 268.902 101.456 265.793 98.425L242.503 74.8976C239.5 71.7594 237.839 67.5564 237.876 63.1938C237.914 58.8311 239.647 54.6579 242.704 51.5729C245.76 48.4879 249.894 46.738 254.216 46.7001C258.537 46.6622 262.701 48.3393 265.81 51.3702H265.793ZM452.282 239.623L475.589 263.15C478.592 266.288 480.253 270.491 480.215 274.854C480.178 279.216 478.444 283.39 475.388 286.475C472.332 289.56 468.198 291.31 463.876 291.347C459.555 291.385 455.391 289.708 452.282 286.677L428.975 263.15C427.401 261.615 426.145 259.779 425.281 257.749C424.417 255.719 423.963 253.536 423.944 251.326C423.925 249.117 424.342 246.926 425.171 244.881C425.999 242.836 427.223 240.979 428.771 239.416C430.318 237.854 432.159 236.619 434.185 235.782C436.21 234.945 438.381 234.524 440.569 234.544C442.758 234.563 444.921 235.022 446.932 235.894C448.943 236.766 450.762 238.033 452.282 239.623Z"/>
</mask>
<path d="M359.038 252.218C337.18 252.218 316.217 243.453 300.761 227.851C285.306 212.249 276.623 191.088 276.623 169.024C276.623 146.959 285.306 125.798 300.761 110.196C316.217 94.5944 337.18 85.8293 359.038 85.8293C380.896 85.8293 401.858 94.5944 417.314 110.196C432.77 125.798 441.453 146.959 441.453 169.024C441.453 191.088 432.77 212.249 417.314 227.851C401.858 243.453 380.896 252.218 359.038 252.218ZM359.038 2.63489C363.409 2.63489 367.602 4.38791 370.693 7.50831C373.784 10.6287 375.521 14.8609 375.521 19.2738V52.5515C375.521 56.9645 373.784 61.1966 370.693 64.317C367.602 67.4374 363.409 69.1904 359.038 69.1904C354.666 69.1904 350.474 67.4374 347.382 64.317C344.291 61.1966 342.555 56.9645 342.555 52.5515V19.2738C342.555 14.8609 344.291 10.6287 347.382 7.50831C350.474 4.38791 354.666 2.63489 359.038 2.63489ZM359.038 268.857C363.409 268.857 367.602 270.61 370.693 273.73C373.784 276.851 375.521 281.083 375.521 285.496V318.774C375.521 323.187 373.784 327.419 370.693 330.539C367.602 333.66 363.409 335.413 359.038 335.413C354.666 335.413 350.474 333.66 347.382 330.539C344.291 327.419 342.555 323.187 342.555 318.774V285.496C342.555 281.083 344.291 276.851 347.382 273.73C350.474 270.61 354.666 268.857 359.038 268.857ZM210.691 152.385H243.657C248.028 152.385 252.221 154.138 255.312 157.258C258.403 160.379 260.14 164.611 260.14 169.024C260.14 173.437 258.403 177.669 255.312 180.789C252.221 183.91 248.028 185.663 243.657 185.663H210.691C206.319 185.663 202.126 183.91 199.035 180.789C195.944 177.669 194.208 173.437 194.208 169.024C194.208 164.611 195.944 160.379 199.035 157.258C202.126 154.138 206.319 152.385 210.691 152.385ZM474.419 152.385H507.385C511.756 152.385 515.949 154.138 519.04 157.258C522.131 160.379 523.868 164.611 523.868 169.024C523.868 173.437 522.131 177.669 519.04 180.789C515.949 183.91 511.756 185.663 507.385 185.663H474.419C470.047 185.663 465.855 183.91 462.764 180.789C459.672 177.669 457.936 173.437 457.936 169.024C457.936 164.611 459.672 160.379 462.764 157.258C465.855 154.138 470.047 152.385 474.419 152.385ZM475.589 51.3702C478.679 54.4904 480.415 58.7218 480.415 63.1339C480.415 67.5459 478.679 71.7773 475.589 74.8976L452.282 98.425C450.762 100.014 448.943 101.282 446.932 102.154C444.921 103.026 442.758 103.485 440.569 103.504C438.381 103.523 436.21 103.102 434.185 102.266C432.159 101.429 430.318 100.193 428.771 98.6312C427.223 97.0689 425.999 95.2112 425.171 93.1663C424.342 91.1214 423.925 88.9305 423.944 86.7211C423.963 84.5118 424.417 82.3285 425.281 80.2985C426.145 78.2685 427.401 76.4325 428.975 74.8976L452.282 51.3702C455.373 48.2509 459.565 46.4985 463.936 46.4985C468.306 46.4985 472.498 48.2509 475.589 51.3702ZM289.1 239.623C292.19 242.743 293.926 246.974 293.926 251.386C293.926 255.798 292.19 260.03 289.1 263.15L265.793 286.677C264.273 288.267 262.454 289.534 260.443 290.406C258.432 291.278 256.269 291.737 254.08 291.756C251.892 291.776 249.721 291.355 247.696 290.518C245.67 289.681 243.83 288.446 242.282 286.884C240.734 285.321 239.51 283.464 238.682 281.419C237.853 279.374 237.436 277.183 237.455 274.974C237.474 272.764 237.929 270.581 238.792 268.551C239.656 266.521 240.912 264.685 242.486 263.15L265.793 239.623C268.884 236.503 273.076 234.751 277.447 234.751C281.817 234.751 286.009 236.503 289.1 239.623ZM265.793 51.3702L289.1 74.8976C292.103 78.0357 293.764 82.2387 293.727 86.6014C293.689 90.9641 291.956 95.1373 288.899 98.2223C285.843 101.307 281.709 103.057 277.387 103.095C273.066 103.133 268.902 101.456 265.793 98.425L242.503 74.8976C239.5 71.7594 237.839 67.5564 237.876 63.1938C237.914 58.8311 239.647 54.6579 242.704 51.5729C245.76 48.4879 249.894 46.738 254.216 46.7001C258.537 46.6622 262.701 48.3393 265.81 51.3702H265.793ZM452.282 239.623L475.589 263.15C478.592 266.288 480.253 270.491 480.215 274.854C480.178 279.216 478.444 283.39 475.388 286.475C472.332 289.56 468.198 291.31 463.876 291.347C459.555 291.385 455.391 289.708 452.282 286.677L428.975 263.15C427.401 261.615 426.145 259.779 425.281 257.749C424.417 255.719 423.963 253.536 423.944 251.326C423.925 249.117 424.342 246.926 425.171 244.881C425.999 242.836 427.223 240.979 428.771 239.416C430.318 237.854 432.159 236.619 434.185 235.782C436.21 234.945 438.381 234.524 440.569 234.544C442.758 234.563 444.921 235.022 446.932 235.894C448.943 236.766 450.762 238.033 452.282 239.623Z" fill="url(#paint0_linear_13_8)" shape-rendering="crispEdges"/>
<path d="M359.038 252.218C337.18 252.218 316.217 243.453 300.761 227.851C285.306 212.249 276.623 191.088 276.623 169.024C276.623 146.959 285.306 125.798 300.761 110.196C316.217 94.5944 337.18 85.8293 359.038 85.8293C380.896 85.8293 401.858 94.5944 417.314 110.196C432.77 125.798 441.453 146.959 441.453 169.024C441.453 191.088 432.77 212.249 417.314 227.851C401.858 243.453 380.896 252.218 359.038 252.218ZM359.038 2.63489C363.409 2.63489 367.602 4.38791 370.693 7.50831C373.784 10.6287 375.521 14.8609 375.521 19.2738V52.5515C375.521 56.9645 373.784 61.1966 370.693 64.317C367.602 67.4374 363.409 69.1904 359.038 69.1904C354.666 69.1904 350.474 67.4374 347.382 64.317C344.291 61.1966 342.555 56.9645 342.555 52.5515V19.2738C342.555 14.8609 344.291 10.6287 347.382 7.50831C350.474 4.38791 354.666 2.63489 359.038 2.63489ZM359.038 268.857C363.409 268.857 367.602 270.61 370.693 273.73C373.784 276.851 375.521 281.083 375.521 285.496V318.774C375.521 323.187 373.784 327.419 370.693 330.539C367.602 333.66 363.409 335.413 359.038 335.413C354.666 335.413 350.474 333.66 347.382 330.539C344.291 327.419 342.555 323.187 342.555 318.774V285.496C342.555 281.083 344.291 276.851 347.382 273.73C350.474 270.61 354.666 268.857 359.038 268.857ZM210.691 152.385H243.657C248.028 152.385 252.221 154.138 255.312 157.258C258.403 160.379 260.14 164.611 260.14 169.024C260.14 173.437 258.403 177.669 255.312 180.789C252.221 183.91 248.028 185.663 243.657 185.663H210.691C206.319 185.663 202.126 183.91 199.035 180.789C195.944 177.669 194.208 173.437 194.208 169.024C194.208 164.611 195.944 160.379 199.035 157.258C202.126 154.138 206.319 152.385 210.691 152.385ZM474.419 152.385H507.385C511.756 152.385 515.949 154.138 519.04 157.258C522.131 160.379 523.868 164.611 523.868 169.024C523.868 173.437 522.131 177.669 519.04 180.789C515.949 183.91 511.756 185.663 507.385 185.663H474.419C470.047 185.663 465.855 183.91 462.764 180.789C459.672 177.669 457.936 173.437 457.936 169.024C457.936 164.611 459.672 160.379 462.764 157.258C465.855 154.138 470.047 152.385 474.419 152.385ZM475.589 51.3702C478.679 54.4904 480.415 58.7218 480.415 63.1339C480.415 67.5459 478.679 71.7773 475.589 74.8976L452.282 98.425C450.762 100.014 448.943 101.282 446.932 102.154C444.921 103.026 442.758 103.485 440.569 103.504C438.381 103.523 436.21 103.102 434.185 102.266C432.159 101.429 430.318 100.193 428.771 98.6312C427.223 97.0689 425.999 95.2112 425.171 93.1663C424.342 91.1214 423.925 88.9305 423.944 86.7211C423.963 84.5118 424.417 82.3285 425.281 80.2985C426.145 78.2685 427.401 76.4325 428.975 74.8976L452.282 51.3702C455.373 48.2509 459.565 46.4985 463.936 46.4985C468.306 46.4985 472.498 48.2509 475.589 51.3702ZM289.1 239.623C292.19 242.743 293.926 246.974 293.926 251.386C293.926 255.798 292.19 260.03 289.1 263.15L265.793 286.677C264.273 288.267 262.454 289.534 260.443 290.406C258.432 291.278 256.269 291.737 254.08 291.756C251.892 291.776 249.721 291.355 247.696 290.518C245.67 289.681 243.83 288.446 242.282 286.884C240.734 285.321 239.51 283.464 238.682 281.419C237.853 279.374 237.436 277.183 237.455 274.974C237.474 272.764 237.929 270.581 238.792 268.551C239.656 266.521 240.912 264.685 242.486 263.15L265.793 239.623C268.884 236.503 273.076 234.751 277.447 234.751C281.817 234.751 286.009 236.503 289.1 239.623ZM265.793 51.3702L289.1 74.8976C292.103 78.0357 293.764 82.2387 293.727 86.6014C293.689 90.9641 291.956 95.1373 288.899 98.2223C285.843 101.307 281.709 103.057 277.387 103.095C273.066 103.133 268.902 101.456 265.793 98.425L242.503 74.8976C239.5 71.7594 237.839 67.5564 237.876 63.1938C237.914 58.8311 239.647 54.6579 242.704 51.5729C245.76 48.4879 249.894 46.738 254.216 46.7001C258.537 46.6622 262.701 48.3393 265.81 51.3702H265.793ZM452.282 239.623L475.589 263.15C478.592 266.288 480.253 270.491 480.215 274.854C480.178 279.216 478.444 283.39 475.388 286.475C472.332 289.56 468.198 291.31 463.876 291.347C459.555 291.385 455.391 289.708 452.282 286.677L428.975 263.15C427.401 261.615 426.145 259.779 425.281 257.749C424.417 255.719 423.963 253.536 423.944 251.326C423.925 249.117 424.342 246.926 425.171 244.881C425.999 242.836 427.223 240.979 428.771 239.416C430.318 237.854 432.159 236.619 434.185 235.782C436.21 234.945 438.381 234.524 440.569 234.544C442.758 234.563 444.921 235.022 446.932 235.894C448.943 236.766 450.762 238.033 452.282 239.623Z" stroke="url(#paint1_linear_13_8)" stroke-width="2" shape-rendering="crispEdges" mask="url(#path-1-inside-1_13_8)"/>
</g>
<g filter="url(#filter1_bd_13_8)">
<path d="M318.347 223.487C315.265 195.65 302.839 169.689 283.106 149.859C263.373 130.03 237.505 117.509 209.741 114.35C181.977 111.19 153.967 117.58 130.301 132.47C106.636 147.361 88.7196 169.869 79.4906 196.305C58.3425 198.04 38.6837 207.907 24.6293 223.842C10.5749 239.776 3.21448 260.542 4.0887 281.792C4.96292 303.043 14.004 323.131 29.3195 337.851C44.635 352.572 65.0375 360.783 86.2564 360.767H319.087C337.248 360.767 354.666 353.535 367.509 340.663C380.351 327.79 387.566 310.331 387.566 292.127C387.566 273.922 380.351 256.463 367.509 243.591C354.666 230.718 337.248 223.487 319.087 223.487H318.347Z" fill="url(#paint2_linear_13_8)" shape-rendering="crispEdges"/>
<path d="M317.85 223.542L317.899 223.987H318.347H319.087C337.115 223.987 354.406 231.165 367.155 243.944C379.904 256.723 387.066 274.055 387.066 292.127C387.066 310.199 379.904 327.531 367.155 340.31C354.406 353.088 337.115 360.267 319.087 360.267H86.2564H86.256C65.1666 360.283 44.8884 352.122 29.666 337.491C14.4436 322.86 5.45721 302.894 4.58828 281.772C3.71935 260.65 11.0353 240.01 25.0043 224.172C38.9733 208.335 58.5124 198.528 79.5315 196.803L79.8555 196.777L79.9626 196.47C89.1544 170.141 106.998 147.724 130.567 132.893C154.137 118.063 182.034 111.7 209.684 114.846C237.335 117.993 263.099 130.463 282.752 150.212C302.405 169.961 314.781 195.817 317.85 223.542Z" stroke="url(#paint3_linear_13_8)" shape-rendering="crispEdges"/>
</g>
<defs>
<filter id="filter0_bd_13_8" x="169.208" y="-22.3651" width="379.66" height="382.778" filterUnits="userSpaceOnUse" color-interpolation-filters="sRGB">
<feFlood flood-opacity="0" result="BackgroundImageFix"/>
<feGaussianBlur in="BackgroundImageFix" stdDeviation="12.5"/>
<feComposite in2="SourceAlpha" operator="in" result="effect1_backgroundBlur_13_8"/>
<feColorMatrix in="SourceAlpha" type="matrix" values="0 0 0 0 0 0 0 0 0 0 0 0 0 0 0 0 0 0 127 0" result="hardAlpha"/>
<feOffset dy="2"/>
<feGaussianBlur stdDeviation="2"/>
<feComposite in2="hardAlpha" operator="out"/>
<feColorMatrix type="matrix" values="0 0 0 0 0 0 0 0 0 0 0 0 0 0 0 0 0 0 0.25 0"/>
<feBlend mode="normal" in2="effect1_backgroundBlur_13_8" result="effect2_dropShadow_13_8"/>
<feBlend mode="normal" in="SourceGraphic" in2="effect2_dropShadow_13_8" result="shape"/>
</filter>
<filter id="filter1_bd_13_8" x="-20.9811" y="88.5608" width="433.547" height="297.206" filterUnits="userSpaceOnUse" color-interpolation-filters="sRGB">
<feFlood flood-opacity="0" result="BackgroundImageFix"/>
<feGaussianBlur in="BackgroundImageFix" stdDeviation="12.5"/>
<feComposite in2="SourceAlpha" operator="in" result="effect1_backgroundBlur_13_8"/>
<feColorMatrix in="SourceAlpha" type="matrix" values="0 0 0 0 0 0 0 0 0 0 0 0 0 0 0 0 0 0 127 0" result="hardAlpha"/>
<feOffset dy="2"/>
<feGaussianBlur stdDeviation="2"/>
<feComposite in2="hardAlpha" operator="out"/>
<feColorMatrix type="matrix" values="0 0 0 0 0 0 0 0 0 0 0 0 0 0 0 0 0 0 0.25 0"/>
<feBlend mode="normal" in2="effect1_backgroundBlur_13_8" result="effect2_dropShadow_13_8"/>
<feBlend mode="normal" in="SourceGraphic" in2="effect2_dropShadow_13_8" result="shape"/>
</filter>
<linearGradient id="paint0_linear_13_8" x1="496.925" y1="37.4973" x2="193.746" y2="320.731" gradientUnits="userSpaceOnUse">
<stop stop-color="#FAFF00" stop-opacity="0.99"/>
<stop offset="1" stop-color="#FFC700" stop-opacity="0.51"/>
</linearGradient>
<linearGradient id="paint1_linear_13_8" x1="509.604" y1="27.9894" x2="202.172" y2="287.921" gradientUnits="userSpaceOnUse">
<stop stop-color="#FBFF42" stop-opacity="0.21"/>
<stop offset="1" stop-color="white" stop-opacity="0.5"/>
</linearGradient>
<linearGradient id="paint2_linear_13_8" x1="324.781" y1="155.801" x2="-62.0121" y2="383.86" gradientUnits="userSpaceOnUse">
<stop stop-color="#35C2FF" stop-opacity="0.25"/>
<stop offset="0.984375" stop-color="#67D1FF"/>
</linearGradient>
<linearGradient id="paint3_linear_13_8" x1="43.1878" y1="378.618" x2="386.658" y2="130.707" gradientUnits="userSpaceOnUse">
<stop stop-color="#35C2FF" stop-opacity="0.18"/>
<stop offset="1" stop-color="white" stop-opacity="0.5"/>
</linearGradient>
</defs>
</svg>
